<svg width="300" height="300" xmlns="http://www.w3.org/2000/svg">
  <rect width="300" height="300" fill="#f3f4f6" stroke="#d1d5db" stroke-width="2"/>
  
  <!-- QR Code pattern simulation -->
  <g fill="#374151" opacity="0.3">
    <!-- Corner squares -->
    <rect x="20" y="20" width="60" height="60"/>
    <rect x="220" y="20" width="60" height="60"/>
    <rect x="20" y="220" width="60" height="60"/>
    
    <!-- Some pattern blocks -->
    <rect x="100" y="40" width="20" height="20"/>
    <rect x="140" y="40" width="20" height="20"/>
    <rect x="120" y="80" width="20" height="20"/>
    <rect x="160" y="100" width="20" height="20"/>
    <rect x="180" y="120" width="20" height="20"/>
    <rect x="100" y="140" width="20" height="20"/>
    <rect x="140" y="160" width="20" height="20"/>
    <rect x="120" y="180" width="20" height="20"/>
    <rect x="200" y="160" width="20" height="20"/>
    <rect x="240" y="180" width="20" height="20"/>
  </g>
  
  <!-- Center message -->
  <text x="150" y="145" text-anchor="middle" font-family="Arial, sans-serif" font-size="14" font-weight="bold" fill="#6b7280">
    QR Code
  </text>
  <text x="150" y="165" text-anchor="middle" font-family="Arial, sans-serif" font-size="14" fill="#6b7280">
    Indisponible
  </text>
  
  <!-- CinéRoom branding -->
  <text x="150" y="190" text-anchor="middle" font-size="24" fill="#9ca3af">
    🎬
  </text>
</svg>